<svg width="18" height="18" viewBox="0 0 18 18" fill="none" xmlns="http://www.w3.org/2000/svg">
<g clip-path="url(#clip0_9511_474)">
<path d="M4.56433 17.9363C3.49386 17.8877 2.91235 17.7095 2.52557 17.5587C2.01308 17.3591 1.6477 17.1216 1.26305 16.7375C0.878414 16.3534 0.640354 15.988 0.441882 15.4755C0.291021 15.0887 0.112878 14.5072 0.0641959 13.4367C0.0106993 12.2796 0 11.9324 0 9.0008C0 6.06919 0.0117693 5.72253 0.0636609 4.56433C0.112343 3.49386 0.291556 2.91342 0.441347 2.52557C0.640889 2.01308 0.878949 1.6477 1.26252 1.26252C1.64663 0.878414 2.01201 0.639819 2.52504 0.441347C2.91182 0.290487 3.49333 0.112343 4.56379 0.0636609C5.72146 0.0106993 6.06919 0 8.99973 0C11.9313 0 12.278 0.0117693 13.4362 0.0636609C14.5067 0.112343 15.0871 0.291556 15.475 0.441347C15.9875 0.639819 16.3528 0.878414 16.7375 1.26252C17.1221 1.64663 17.3591 2.01254 17.5587 2.52504C17.7095 2.91182 17.8877 3.49333 17.9363 4.56379C17.9893 5.722 18 6.06865 18 9.00027C18 11.9308 17.9893 12.2785 17.9363 13.4367C17.8877 14.5072 17.7084 15.0887 17.5587 15.4755C17.3591 15.988 17.1216 16.3534 16.7375 16.7375C16.3534 17.1216 15.9875 17.3591 15.475 17.5587C15.0882 17.7095 14.5067 17.8877 13.4362 17.9363C12.2791 17.9893 11.9313 18 8.99973 18C6.06919 18 5.72146 17.9898 4.56433 17.9363Z" fill="url(#paint0_radial_9511_474)"/>
<path d="M4.56433 17.9363C3.49386 17.8877 2.91235 17.7095 2.52557 17.5587C2.01308 17.3591 1.6477 17.1216 1.26305 16.7375C0.878414 16.3534 0.640354 15.988 0.441882 15.4755C0.291021 15.0887 0.112878 14.5072 0.0641959 13.4367C0.0106993 12.2796 0 11.9324 0 9.0008C0 6.06919 0.0117693 5.72253 0.0636609 4.56433C0.112343 3.49386 0.291556 2.91342 0.441347 2.52557C0.640889 2.01308 0.878949 1.6477 1.26252 1.26252C1.64663 0.878414 2.01201 0.639819 2.52504 0.441347C2.91182 0.290487 3.49333 0.112343 4.56379 0.0636609C5.72146 0.0106993 6.06919 0 8.99973 0C11.9313 0 12.278 0.0117693 13.4362 0.0636609C14.5067 0.112343 15.0871 0.291556 15.475 0.441347C15.9875 0.639819 16.3528 0.878414 16.7375 1.26252C17.1221 1.64663 17.3591 2.01254 17.5587 2.52504C17.7095 2.91182 17.8877 3.49333 17.9363 4.56379C17.9893 5.722 18 6.06865 18 9.00027C18 11.9308 17.9893 12.2785 17.9363 13.4367C17.8877 14.5072 17.7084 15.0887 17.5587 15.4755C17.3591 15.988 17.1216 16.3534 16.7375 16.7375C16.3534 17.1216 15.9875 17.3591 15.475 17.5587C15.0882 17.7095 14.5067 17.8877 13.4362 17.9363C12.2791 17.9893 11.9313 18 8.99973 18C6.06919 18 5.72146 17.9898 4.56433 17.9363Z" fill="url(#paint1_radial_9511_474)"/>
<path d="M6.78995 9.03839C6.78995 7.80738 7.78761 6.80919 9.01862 6.80919C10.2496 6.80919 11.2478 7.80738 11.2478 9.03839C11.2478 10.2694 10.2496 11.2676 9.01862 11.2676C7.78761 11.2676 6.78995 10.2694 6.78995 9.03839ZM5.58488 9.03839C5.58488 10.9348 7.12216 12.4721 9.01862 12.4721C10.9151 12.4721 12.4523 10.9348 12.4523 9.03839C12.4523 7.14194 10.9151 5.60466 9.01862 5.60466C7.12216 5.60466 5.58494 7.14183 5.58494 9.03839H5.58488ZM11.7859 5.46851C11.7858 5.62722 11.8328 5.78238 11.9209 5.91438C12.0091 6.04638 12.1344 6.14928 12.281 6.21008C12.4276 6.27087 12.5889 6.28682 12.7446 6.25592C12.9002 6.22502 13.0433 6.14866 13.1555 6.03648C13.2678 5.9243 13.3443 5.78134 13.3753 5.6257C13.4063 5.47005 13.3905 5.3087 13.3298 5.16205C13.2691 5.01539 13.1663 4.89003 13.0344 4.8018C12.9025 4.71357 12.7474 4.66645 12.5887 4.66638H12.5883C12.3756 4.66648 12.1716 4.75101 12.0211 4.90141C11.8707 5.05181 11.7861 5.25577 11.7859 5.46851ZM6.31704 14.4816C5.66508 14.4519 5.31071 14.3433 5.07522 14.2515C4.76302 14.13 4.54026 13.9852 4.30605 13.7513C4.07184 13.5174 3.92686 13.2949 3.80586 12.9827C3.71406 12.7473 3.60546 12.3928 3.57582 11.7409C3.5434 11.036 3.53693 10.8243 3.53693 9.0385C3.53693 7.25273 3.54394 7.04158 3.57582 6.33612C3.60551 5.68416 3.71491 5.33038 3.80586 5.0943C3.9274 4.7821 4.07216 4.55934 4.30605 4.32513C4.53994 4.09092 4.76248 3.94594 5.07522 3.82494C5.31061 3.73314 5.66508 3.62454 6.31704 3.5949C7.02191 3.56248 7.23365 3.55601 9.01862 3.55601C10.8036 3.55601 11.0155 3.56291 11.721 3.59501C12.373 3.6247 12.7267 3.7341 12.9628 3.82504C13.275 3.94605 13.4978 4.09135 13.732 4.32524C13.9662 4.55912 14.1106 4.7822 14.2322 5.09441C14.324 5.32979 14.4326 5.68426 14.4622 6.33623C14.4946 7.04169 14.5011 7.25284 14.5011 9.03861C14.5011 10.8244 14.4946 11.0355 14.4622 11.741C14.4325 12.3929 14.3234 12.7473 14.2322 12.9828C14.1106 13.295 13.9659 13.5178 13.732 13.7514C13.4981 13.9851 13.275 14.1301 12.9628 14.2516C12.7274 14.3434 12.373 14.452 11.721 14.4817C11.0161 14.5141 10.8044 14.5206 9.01862 14.5206C7.23285 14.5206 7.0217 14.5141 6.31704 14.4817V14.4816ZM6.26167 2.39182C5.54979 2.42423 5.06335 2.53711 4.63853 2.70242C4.19884 2.87312 3.82613 3.10214 3.45395 3.47373C3.08178 3.84532 2.85335 4.21808 2.68264 4.65831C2.51734 5.08339 2.40446 5.56957 2.37204 6.28145C2.33909 6.99445 2.33154 7.2224 2.33154 9.03839C2.33154 10.8544 2.33909 11.0823 2.37204 11.7953C2.40446 12.5073 2.51734 12.9934 2.68264 13.4185C2.85335 13.8582 3.08183 14.2316 3.45395 14.6031C3.82608 14.9745 4.19831 15.2032 4.63853 15.3744C5.06415 15.5397 5.54979 15.6525 6.26167 15.685C6.97505 15.7174 7.20262 15.7255 9.01862 15.7255C10.8346 15.7255 11.0626 15.7179 11.7756 15.685C12.4875 15.6525 12.9736 15.5397 13.3987 15.3744C13.8384 15.2032 14.2111 14.9746 14.5833 14.6031C14.9555 14.2315 15.1834 13.8582 15.3546 13.4185C15.5199 12.9934 15.6333 12.5072 15.6652 11.7953C15.6976 11.0818 15.7052 10.8544 15.7052 9.03839C15.7052 7.2224 15.6976 6.99445 15.6652 6.28145C15.6328 5.56951 15.5199 5.08312 15.3546 4.65831C15.1834 4.21862 14.9549 3.84591 14.5833 3.47373C14.2117 3.10155 13.8384 2.87312 13.3992 2.70242C12.9736 2.53711 12.4874 2.4237 11.7761 2.39182C11.063 2.35924 10.8351 2.35132 9.01942 2.35132C7.20369 2.35132 6.97531 2.35886 6.26194 2.39182" fill="white"/>
</g>
<defs>
<radialGradient id="paint0_radial_9511_474" cx="0" cy="0" r="1" gradientUnits="userSpaceOnUse" gradientTransform="translate(1.16494 17.6057) scale(22.8533)">
<stop offset="0.09" stop-color="#FA8F21"/>
<stop offset="0.78" stop-color="#D82D7E"/>
</radialGradient>
<radialGradient id="paint1_radial_9511_474" cx="0" cy="0" r="1" gradientUnits="userSpaceOnUse" gradientTransform="translate(12.468 17.0277) scale(20.1111)">
<stop offset="0.64" stop-color="#8C3AAA" stop-opacity="0"/>
<stop offset="1" stop-color="#8C3AAA"/>
</radialGradient>
<clipPath id="clip0_9511_474">
<rect width="18" height="18" fill="white"/>
</clipPath>
</defs>
</svg>
