<svg width="24" height="24" viewBox="0 0 24 24" fill="none" xmlns="http://www.w3.org/2000/svg">
<g clip-path="url(#clip0_9511_3140)">
<path d="M8.08787 0.323999C7.97987 0.516001 7.64387 1.176 7.34387 1.8L6.77987 2.928L5.60387 3.252C4.51187 3.564 4.39187 3.624 3.88787 4.188C3.31187 4.836 3.35987 4.812 1.33187 5.112L-0.0361328 5.316L0.0358672 6.132C0.107867 7.02 0.455867 7.92 0.875867 8.376C1.42787 8.964 2.00387 9.144 3.71987 9.264C4.60787 9.324 5.37587 9.408 5.41187 9.456C5.44787 9.504 5.92787 10.86 6.46787 12.48L7.46387 15.42L6.21587 18.228C5.53187 19.776 4.88387 21.084 4.78787 21.132C4.69187 21.18 4.39187 21.276 4.11587 21.348C3.46787 21.528 2.90387 22.008 2.62787 22.62C2.33987 23.244 2.33987 23.46 2.63987 23.76C2.86787 23.988 3.03587 24 5.92787 24H8.96387L8.91587 23.712C8.86787 23.496 8.93987 23.376 9.19187 23.208C9.37187 23.076 9.73187 22.788 9.98387 22.548C10.5599 21.996 10.5719 21.648 10.0559 20.64C9.68387 19.932 9.65987 19.8 9.67187 18.732C9.67187 18.096 9.71987 17.148 9.77987 16.62C9.89987 15.396 9.73187 15.012 8.89187 14.592C8.13587 14.208 7.67987 13.656 7.67987 13.14C7.67987 12.792 7.72787 12.732 8.03987 12.66C8.25587 12.612 8.57987 12.36 8.87987 12C9.21587 11.604 9.52787 11.364 9.87587 11.244L10.3799 11.076L10.4399 10.284L10.4999 9.48L11.5439 10.392C12.7199 11.4 13.1159 12.072 13.4999 13.62C13.8959 15.24 14.4119 15.84 16.1999 16.752C18.1199 17.724 19.1759 19.008 19.4039 20.664C19.4879 21.216 19.7759 21.276 20.2199 20.82C20.6519 20.388 20.6039 19.776 20.0159 18.072C19.5599 16.776 19.4999 16.488 19.4759 15.384L19.4519 14.148L18.1919 12.792C16.7159 11.184 16.1879 10.692 14.5319 9.36C13.0439 8.172 12.0839 7.224 11.6999 6.552C11.5439 6.276 11.0879 5.292 10.6919 4.344C9.62387 1.86 8.67587 0 8.44787 0C8.35187 0 8.18387 0.143999 8.08787 0.323999Z" fill="white"/>
<path d="M21.2881 10.1402C21.2521 10.2362 21.2761 10.5842 21.3481 10.9202C21.4201 11.2562 21.4801 11.9162 21.4801 12.3962C21.4801 13.2242 21.4921 13.2722 21.8401 13.4642C22.1161 13.6202 22.2001 13.7522 22.2001 14.0282C22.2001 14.4962 21.8641 14.6882 21.2521 14.5802C20.8321 14.5082 20.7841 14.5322 20.7121 14.8202C20.6041 15.2282 20.8321 16.4162 21.2041 17.4602C21.9001 19.4162 21.9961 20.2322 21.6121 21.0602C21.3121 21.7082 20.8921 22.0682 20.1601 22.3202C19.7161 22.4642 19.4641 22.6442 19.2121 23.0162C18.9601 23.3522 18.6721 23.5682 18.2161 23.7482L17.5801 24.0122L19.0441 23.9642C20.3401 23.9162 20.5801 23.8802 21.1801 23.5922C21.9841 23.1842 22.6081 22.4282 22.8721 21.5042C23.1361 20.6162 23.0521 19.3082 22.6921 18.5642C22.4041 17.9642 22.4041 17.9762 22.9801 17.2082C23.6881 16.2842 23.9281 15.5402 23.9281 14.3402C23.9281 13.5002 23.8681 13.1162 23.6521 12.6002C23.3281 11.8082 22.4041 10.3922 22.0441 10.1402C21.7201 9.91221 21.3721 9.91221 21.2881 10.1402Z" fill="white"/>
<path d="M13.248 19.008C12.564 19.308 12.276 19.86 11.832 21.708C11.604 22.644 11.328 23.544 11.232 23.7L11.04 24H11.604C12.096 24 12.144 23.976 11.952 23.844C11.76 23.712 11.748 23.64 11.868 23.412C12.048 23.076 12.468 22.92 13.164 22.92H13.716L13.224 22.56C12.552 22.08 12.312 21.588 12.408 20.904C12.564 19.764 13.356 19.104 14.58 19.068C15.06 19.056 15.12 19.032 14.88 18.96C14.412 18.804 13.656 18.828 13.248 19.008Z" fill="white"/>
</g>
<defs>
<clipPath id="clip0_9511_3140">
<rect width="24" height="24" fill="white"/>
</clipPath>
</defs>
</svg>
