<svg width="18" height="20" viewBox="0 0 18 20" fill="none" xmlns="http://www.w3.org/2000/svg">
<path fill-rule="evenodd" clip-rule="evenodd" d="M0 1C0 0.447715 0.449317 0 1.00358 0H2.50894C3.34034 0 4.01431 0.671572 4.01431 1.5V2.06055L16.5883 2.96818C17.4651 3.02278 18.1089 3.81081 17.9846 4.67739L17.1194 10.7121C17.0135 11.4511 16.3783 12 15.6292 12H4.01431V14H14.0572C15.72 14 17.068 15.3431 17.068 17C17.068 18.6569 15.72 20 14.0572 20C12.3945 20 11.0465 18.6569 11.0465 17C11.0465 16.6494 11.1069 16.3128 11.2178 16H5.85015C5.9611 16.3128 6.02147 16.6494 6.02147 17C6.02147 18.6569 4.67352 20 3.01073 20C1.34795 20 0 18.6569 0 17C0 15.6938 0.837794 14.5825 2.00716 14.1707V3.00923C2.00711 3.00372 2.00711 2.99821 2.00716 2.99268V2H1.00358C0.449317 2 0 1.55228 0 1ZM4.01431 4.06445V10H15.194L15.9208 4.93051L4.01431 4.06445ZM13.0537 17C13.0537 16.4477 13.503 16 14.0572 16C14.6115 16 15.0608 16.4477 15.0608 17C15.0608 17.5523 14.6115 18 14.0572 18C13.503 18 13.0537 17.5523 13.0537 17ZM2.00716 17C2.00716 16.4477 2.45647 16 3.01073 16C3.56499 16 4.01431 16.4477 4.01431 17C4.01431 17.5523 3.56499 18 3.01073 18C2.45647 18 2.00716 17.5523 2.00716 17Z" fill="#5C5F62"/>
</svg>
