<svg width="40" height="40" viewBox="0 0 40 40" fill="none" xmlns="http://www.w3.org/2000/svg">
<path d="M19.0186 0.244236L3.58017 8.43993C3.15194 8.66724 2.88428 9.1124 2.88428 9.59735V30.1702C2.88428 31.0012 3.35123 31.7615 4.09221 32.1374L19.2314 39.816C19.7144 40.0611 20.2854 40.0611 20.7683 39.816L35.9076 32.1374C36.6486 31.7615 37.1155 31.0011 37.1155 30.1702V9.59735C37.1155 9.1124 36.8479 8.66724 36.4195 8.43993L20.9813 0.244236C20.3677 -0.0813713 19.6323 -0.0813713 19.0186 0.244236Z" fill="#FFCE94"/>
<path d="M20 40C20.2635 40 20.5271 39.9388 20.7685 39.8163L35.9078 32.1376C36.6487 31.7618 37.1157 31.0013 37.1157 30.1704V9.59735C37.1157 9.38316 37.061 9.17819 36.9658 8.99487L20 18.031V40Z" fill="#FCB043"/>
<path d="M20 18.031L3.03429 8.99472C2.93897 9.17804 2.88428 9.38301 2.88428 9.5972V30.1702C2.88428 31.0012 3.35123 31.7615 4.09221 32.1373L19.2314 39.816C19.4729 39.9385 19.7364 39.9997 19.9998 39.9997V18.031H20Z" fill="#E2791B"/>
<path d="M26.0485 2.93423L8.87842 12.0782V15.004C8.87842 15.2848 9.0333 15.5427 9.28106 15.6749L12.265 17.2653C12.5018 17.3915 12.7876 17.2199 12.7876 16.9516V14.2208L29.9844 5.02367L26.0485 2.93423Z" fill="#DEF2FC"/>
<path d="M22.4731 34.1616L27.0537 31.9709C27.6402 31.6906 28.0075 31.092 27.9921 30.4421L27.9917 30.4218C27.979 29.8857 27.4098 29.5474 26.9327 29.7924L22.4733 32.0826V34.1616H22.4731Z" fill="#403A46"/>
<path d="M22.4731 37.356L24.9885 36.1875C25.5841 35.9106 25.9592 35.3073 25.9437 34.6507C25.9309 34.1126 25.3585 33.7744 24.8812 34.023L22.4731 35.2767V37.356Z" fill="#403A46"/>
<path d="M8.87842 12.1075V15.004C8.87842 15.2848 9.0333 15.5427 9.28106 15.6749L12.265 17.2653C12.5018 17.3915 12.7876 17.2199 12.7876 16.9516V14.2208L12.8167 14.2052C11.806 13.6669 10.1645 12.7925 8.87842 12.1075Z" fill="#B6C8CE"/>
</svg>
