<svg width="16" height="16" viewBox="0 0 16 16" fill="none" xmlns="http://www.w3.org/2000/svg">
<path fill-rule="evenodd" clip-rule="evenodd" d="M13.2001 3.2C13.8628 3.2 14.4001 3.73726 14.4001 4.4V13.2C14.4001 13.8627 13.8628 14.4 13.2001 14.4H2.8001C2.13736 14.4 1.6001 13.8627 1.6001 13.2V4.4C1.6001 3.73726 2.13736 3.2 2.8001 3.2H4.0001V2.4C4.0001 1.9584 4.3577 1.6 4.8001 1.6C5.2425 1.6 5.6001 1.9584 5.6001 2.4V3.2H10.4001V2.4C10.4001 1.9584 10.7577 1.6 11.2001 1.6C11.6425 1.6 12.0001 1.9584 12.0001 2.4V3.2H13.2001ZM12.8001 6.4H3.2001V12.8H12.8001V6.4Z" fill="#8C9196"/>
</svg>
