<svg width="16" height="16" viewBox="0 0 16 16" fill="none" xmlns="http://www.w3.org/2000/svg">
<g clip-path="url(#clip0_9511_470)">
<path fill-rule="evenodd" clip-rule="evenodd" d="M2.3999 1.2C2.3999 0.537258 2.93716 0 3.5999 0H12.3999C13.0626 0 13.5999 0.537258 13.5999 1.2V14.8C13.5999 15.4627 13.0626 16 12.3999 16H3.5999C2.93716 16 2.3999 15.4627 2.3999 14.8V1.2ZM3.9999 1.6H11.9999V12.8H3.9999V1.6ZM7.1999 13.6C6.75807 13.6 6.3999 13.9582 6.3999 14.4C6.3999 14.8418 6.75807 15.2 7.1999 15.2H8.7999C9.24173 15.2 9.5999 14.8418 9.5999 14.4C9.5999 13.9582 9.24173 13.6 8.7999 13.6H7.1999Z" fill="#8C9196"/>
</g>
<defs>
<clipPath id="clip0_9511_470">
<rect width="16" height="16" fill="white"/>
</clipPath>
</defs>
</svg>
